<svg width="512" height="512" viewBox="0 0 512 512" xmlns="http://www.w3.org/2000/svg">
  <defs>
    <linearGradient id="bg" x1="0" y1="0" x2="1" y2="1">
      <stop offset="0" stop-color="#4f46e5"/>
      <stop offset="1" stop-color="#4338ca"/>
    </linearGradient>
  </defs>
  <rect width="512" height="512" fill="url(#bg)"/>
  <!-- Círculos decorativos, mismo lenguaje que la SummaryCard -->
  <circle cx="440" cy="60" r="120" fill="#ffffff" opacity="0.06"/>
  <circle cx="70" cy="450" r="90" fill="#ffffff" opacity="0.06"/>
  <!-- Chanchito (lucide piggy-bank) -->
  <g transform="translate(100,100) scale(13)"
     fill="none" stroke="#ffffff" stroke-width="2.2"
     stroke-linecap="round" stroke-linejoin="round">
    <path d="M19 5c-1.5 0-2.8 1.4-3 2-3.5-1.5-11-.3-11 5 0 1.8 0 3 2 4.5V20h4v-2h3v2h4v-4c1-.5 1.7-1 2-2h2v-4h-2c0-1-.5-1.5-1-2V5z"/>
    <path d="M2 9v1c0 1.1.9 2 2 2h1"/>
    <path d="M16 11h.01"/>
  </g>
</svg>
