<svg width="631.253662109375px" height="112.39999999999999px" xmlns="http://www.w3.org/2000/svg" viewBox="-65.6268310546875 18.800000000000004 631.253662109375 112.39999999999999" style="background: rgba(0, 0, 0, 0);" preserveAspectRatio="xMidYMid"><defs><filter id="editing-hole" x="-100%" y="-100%" width="300%" height="300%"><feFlood flood-color="#000000" result="black"></feFlood><feMorphology operator="dilate" radius="2" in="SourceGraphic" result="erode"></feMorphology><feGaussianBlur in="erode" stdDeviation="4" result="blur"></feGaussianBlur><feOffset in="blur" dx="2" dy="2" result="offset"></feOffset><feComposite operator="atop" in="offset" in2="black" result="merge"></feComposite><feComposite operator="in" in="merge" in2="SourceGraphic" result="inner-shadow"></feComposite></filter></defs><g filter="url(#editing-hole)"><g transform="translate(27.113275468349457, 99.51000213623047)"><path d="M10.43-1.92L0.58 0.13L0.58 0.13Q2.24-8.70 3.84-17.22L3.84-17.22L3.84-17.22Q4.42-20.80 5.12-24.67L5.12-24.67L5.12-24.67Q5.82-28.54 6.46-32.32L6.46-32.32L6.46-32.32Q7.10-36.10 7.68-39.65L7.68-39.65L7.68-39.65Q8.26-43.20 8.70-46.14L8.70-46.14L19.07-46.85L19.07-46.85Q17.98-42.37 16.93-37.50L16.93-37.50L16.93-37.50Q15.87-32.64 14.98-28.03L14.98-28.03L21.31-28.74L21.31-28.74Q22.21-33.28 22.91-37.54L22.91-37.54L22.91-37.54Q23.62-41.79 24.77-46.34L24.77-46.34L24.77-46.34Q26.24-46.59 28.03-46.75L28.03-46.75L28.03-46.75Q29.82-46.91 31.36-47.04L31.36-47.04L31.36-47.04Q32.90-47.17 33.95-47.26L33.95-47.26L33.95-47.26Q35.01-47.36 35.01-47.36L35.01-47.36L35.01-47.36Q34.11-44.48 33.31-41.06L33.31-41.06L33.31-41.06Q32.51-37.63 31.74-33.95L31.74-33.95L31.74-33.95Q30.98-30.27 30.27-26.50L30.27-26.50L30.27-26.50Q29.57-22.72 28.99-19.33L28.99-19.33L28.99-19.33Q27.58-11.20 26.37-2.69L26.37-2.69L16.38-1.54L16.38-1.54Q17.22-5.38 17.86-9.02L17.86-9.02L17.86-9.02Q18.50-12.10 19.17-15.42L19.17-15.42L19.17-15.42Q19.84-18.75 20.22-21.12L20.22-21.12L14.02-20.54L14.02-20.54Q13.57-18.11 12.96-14.91L12.96-14.91L12.96-14.91Q12.35-11.71 11.84-8.83L11.84-8.83L11.84-8.83Q11.14-5.38 10.43-1.92L10.43-1.92ZM54.91-12.48L54.91-12.48Q54.02-8.83 52.38-6.27L52.38-6.27L52.38-6.27Q50.75-3.71 48.54-2.05L48.54-2.05L48.54-2.05Q46.34-0.38 43.84 0.38L43.84 0.38L43.84 0.38Q41.34 1.15 38.85 1.15L38.85 1.15L38.85 1.15Q37.38 1.15 35.84 0.67L35.84 0.67L35.84 0.67Q34.30 0.19 33.09-0.77L33.09-0.77L33.09-0.77Q31.87-1.73 31.07-3.20L31.07-3.20L31.07-3.20Q30.27-4.67 30.27-6.66L30.27-6.66L30.27-6.66Q30.27-6.91 30.27-7.17L30.27-7.17L30.27-7.17Q30.27-7.42 30.34-7.68L30.34-7.68L30.34-7.68Q30.59-10.30 31.17-14.02L31.17-14.02L31.17-14.02Q31.74-17.73 32.38-21.76L32.38-21.76L32.38-21.76Q33.02-25.79 33.79-29.86L33.79-29.86L33.79-29.86Q34.56-33.92 35.17-37.25L35.17-37.25L35.17-37.25Q35.78-40.58 36.22-42.78L36.22-42.78L36.22-42.78Q36.67-44.99 36.80-45.50L36.80-45.50L36.80-45.50Q38.14-45.63 40-45.82L40-45.82L40-45.82Q41.86-46.02 43.46-46.14L43.46-46.14L43.46-46.14Q45.44-46.34 47.36-46.53L47.36-46.53L47.36-46.53Q45.70-38.78 44.42-32.51L44.42-32.51L44.42-32.51Q43.84-29.82 43.30-27.14L43.30-27.14L43.30-27.14Q42.75-24.45 42.27-22.21L42.27-22.21L42.27-22.21Q41.79-19.97 41.44-18.34L41.44-18.34L41.44-18.34Q41.09-16.70 40.86-15.68L40.86-15.68L40.86-15.68Q40.64-14.66 40.35-13.09L40.35-13.09L40.35-13.09Q40.06-11.52 40.06-10.24L40.06-10.24L40.06-10.24Q40.06-9.22 40.58-8.54L40.58-8.54L40.58-8.54Q41.09-7.87 41.86-7.87L41.86-7.87L41.86-7.87Q42.94-7.87 43.65-8.74L43.65-8.74L43.65-8.74Q44.35-9.60 44.83-10.82L44.83-10.82L44.83-10.82Q45.31-12.03 45.54-13.28L45.54-13.28L45.54-13.28Q45.76-14.53 45.95-15.23L45.95-15.23L45.95-15.23Q46.34-17.09 46.82-19.36L46.82-19.36L46.82-19.36Q47.30-21.63 47.78-24.10L47.78-24.10L47.78-24.10Q48.26-26.56 48.74-29.12L48.74-29.12L48.74-29.12Q49.22-31.68 49.66-34.11L49.66-34.11L49.66-34.11Q50.75-39.74 51.78-45.76L51.78-45.76L61.50-46.40L61.50-46.40Q61.50-46.40 61.18-44.74L61.18-44.74L61.18-44.74Q60.86-43.07 60.35-40.32L60.35-40.32L60.35-40.32Q59.84-37.57 59.23-34.05L59.23-34.05L59.23-34.05Q58.62-30.53 57.86-26.72L57.86-26.72L57.86-26.72Q57.09-22.91 56.35-19.23L56.35-19.23L56.35-19.23Q55.62-15.55 54.91-12.48L54.91-12.48ZM84.03-16.06L84.03-16.06Q84.03-13.44 82.94-11.20L82.94-11.20L82.94-11.20Q81.86-8.96 80-7.14L80-7.14L80-7.14Q78.14-5.31 75.68-3.94L75.68-3.94L75.68-3.94Q73.22-2.56 70.50-1.63L70.50-1.63L70.50-1.63Q67.78-0.70 64.93-0.22L64.93-0.22L64.93-0.22Q62.08 0.26 59.46 0.26L59.46 0.26L59.46 0.26Q57.09 0.26 55.04-0.13L55.04-0.13L55.04-0.13Q58.11-11.33 59.94-22.69L59.94-22.69L59.94-22.69Q61.76-34.05 63.42-45.57L63.42-45.57L63.42-45.57Q66.75-46.27 70.34-46.82L70.34-46.82L70.34-46.82Q73.92-47.36 77.76-47.36L77.76-47.36L77.76-47.36Q79.36-47.36 81.15-46.98L81.15-46.98L81.15-46.98Q82.94-46.59 84.42-45.57L84.42-45.57L84.42-45.57Q85.89-44.54 86.88-42.88L86.88-42.88L86.88-42.88Q87.87-41.22 87.87-38.66L87.87-38.66L87.87-38.66Q87.87-36.22 87.07-34.11L87.07-34.11L87.07-34.11Q86.27-32 85.02-30.27L85.02-30.27L85.02-30.27Q83.78-28.54 82.18-27.30L82.18-27.30L82.18-27.30Q80.58-26.05 78.91-25.41L78.91-25.41L78.91-25.41Q79.74-24.96 80.64-24.13L80.64-24.13L80.64-24.13Q81.54-23.30 82.30-22.18L82.30-22.18L82.30-22.18Q83.07-21.06 83.55-19.52L83.55-19.52L83.55-19.52Q84.03-17.98 84.03-16.06L84.03-16.06ZM69.38-22.72L69.38-22.72Q69.12-21.18 68.90-20L68.90-20L68.90-20Q68.67-18.82 68.48-17.73L68.48-17.73L68.48-17.73Q68.29-16.64 68.06-15.46L68.06-15.46L68.06-15.46Q67.84-14.27 67.58-12.67L67.58-12.67L67.58-12.67Q68.80-12.80 70.34-13.12L70.34-13.12L70.34-13.12Q71.87-13.44 73.28-14.11L73.28-14.11L73.28-14.11Q74.69-14.78 75.65-15.90L75.65-15.90L75.65-15.90Q76.61-17.02 76.61-18.62L76.61-18.62L76.61-18.62Q76.61-19.78 76-20.54L76-20.54L76-20.54Q75.39-21.31 74.46-21.82L74.46-21.82L74.46-21.82Q73.54-22.34 72.45-22.56L72.45-22.56L72.45-22.56Q71.36-22.78 70.40-22.78L70.40-22.78L70.40-22.78Q70.08-22.78 69.86-22.78L69.86-22.78L69.86-22.78Q69.63-22.78 69.38-22.72L69.38-22.72ZM72.26-38.21L72.26-38.21Q72.13-37.50 71.97-36.54L71.97-36.54L71.97-36.54Q71.81-35.58 71.62-34.53L71.62-34.53L71.62-34.53Q71.42-33.47 71.20-32.45L71.20-32.45L71.20-32.45Q70.98-31.42 70.85-30.66L70.85-30.66L70.85-30.66Q72.26-30.91 73.66-31.36L73.66-31.36L73.66-31.36Q75.07-31.81 76.19-32.35L76.19-32.35L76.19-32.35Q77.31-32.90 77.98-33.54L77.98-33.54L77.98-33.54Q78.66-34.18 78.66-34.94L78.66-34.94L78.66-34.94Q78.66-35.90 78.08-36.51L78.08-36.51L78.08-36.51Q77.50-37.12 76.58-37.50L76.58-37.50L76.58-37.50Q75.65-37.89 74.66-38.05L74.66-38.05L74.66-38.05Q73.66-38.21 72.90-38.21L72.90-38.21L72.26-38.21ZM93.38-1.28L93.38-1.28Q92.80-1.28 91.10-1.12L91.10-1.12L91.10-1.12Q89.41-0.96 87.62-0.74L87.62-0.74L87.62-0.74Q85.82-0.51 84.38-0.32L84.38-0.32L84.38-0.32Q82.94-0.13 82.82-0.06L82.82-0.06L82.82-0.06Q83.46-2.82 84.13-6.18L84.13-6.18L84.13-6.18Q84.80-9.54 85.50-13.22L85.50-13.22L85.50-13.22Q86.21-16.90 86.85-20.67L86.85-20.67L86.85-20.67Q87.49-24.45 88.06-27.97L88.06-27.97L88.06-27.97Q89.41-36.16 90.75-44.80L90.75-44.80L100.74-46.40L100.74-46.40Q99.26-37.82 97.86-29.57L97.86-29.57L97.86-29.57Q97.28-26.05 96.67-22.27L96.67-22.27L96.67-22.27Q96.06-18.50 95.46-14.78L95.46-14.78L95.46-14.78Q94.85-11.07 94.34-7.58L94.34-7.58L94.34-7.58Q93.82-4.10 93.38-1.28L93.38-1.28ZM116.61-3.14L95.94 0.06L104.32-45.44L124.54-47.17L124.54-47.17Q124.10-45.76 123.78-44.29L123.78-44.29L123.78-44.29Q123.46-43.07 123.17-41.76L123.17-41.76L123.17-41.76Q122.88-40.45 122.69-39.42L122.69-39.42L122.69-39.42Q122.05-39.36 120.86-39.33L120.86-39.33L120.86-39.33Q119.68-39.30 118.34-39.26L118.34-39.26L118.34-39.26Q116.99-39.23 115.62-39.23L115.62-39.23L115.62-39.23Q114.24-39.23 113.22-39.23L113.22-39.23L110.98-27.78L110.98-27.78Q112.96-27.90 114.69-27.97L114.69-27.97L114.69-27.97Q116.10-28.03 117.57-28.03L117.57-28.03L117.57-28.03Q119.04-28.03 119.74-28.10L119.74-28.10L119.74-28.10Q119.49-26.30 119.26-24.58L119.26-24.58L119.26-24.58Q119.04-22.85 118.72-21.06L118.72-21.06L118.72-21.06Q118.08-20.99 116.64-20.96L116.64-20.96L116.64-20.96Q115.20-20.93 113.73-20.86L113.73-20.86L113.73-20.86Q112.06-20.80 110.08-20.74L110.08-20.74L107.90-8.96L117.25-10.43L116.61-3.14ZM127.87-2.62L117.50 0.06L117.50 0.06Q119.23-8.45 120.83-16.58L120.83-16.58L120.83-16.58Q121.41-20.03 122.11-23.78L122.11-23.78L122.11-23.78Q122.82-27.52 123.42-31.20L123.42-31.20L123.42-31.20Q124.03-34.88 124.58-38.30L124.58-38.30L124.58-38.30Q125.12-41.73 125.44-44.54L125.44-44.54L125.44-44.54Q129.09-45.70 133.31-46.24L133.31-46.24L133.31-46.24Q137.54-46.78 141.70-46.78L141.70-46.78L141.70-46.78Q144.19-46.78 145.82-46.21L145.82-46.21L145.82-46.21Q147.46-45.63 148.38-44.58L148.38-44.58L148.38-44.58Q149.31-43.52 149.70-42.11L149.70-42.11L149.70-42.11Q150.08-40.70 150.08-38.98L150.08-38.98L150.08-38.98Q150.08-36.42 149.18-33.95L149.18-33.95L149.18-33.95Q148.29-31.49 146.78-29.28L146.78-29.28L146.78-29.28Q145.28-27.07 143.33-25.25L143.33-25.25L143.33-25.25Q141.38-23.42 139.14-22.27L139.14-22.27L139.14-22.27Q140.29-19.71 141.60-16.67L141.60-16.67L141.60-16.67Q142.91-13.63 144.06-10.88L144.06-10.88L144.06-10.88Q145.34-7.68 146.69-4.48L146.69-4.48L136.77-1.02L136.77-1.02Q135.49-5.12 134.46-8.70L134.46-8.70L134.46-8.70Q134.02-10.18 133.57-11.74L133.57-11.74L133.57-11.74Q133.12-13.31 132.74-14.72L132.74-14.72L132.74-14.72Q132.35-16.13 132.10-17.25L132.10-17.25L132.10-17.25Q131.84-18.37 131.78-19.07L131.78-19.07L130.94-18.82L130.94-18.82Q130.56-16.77 130.02-14.02L130.02-14.02L130.02-14.02Q129.47-11.26 129.02-8.70L129.02-8.70L129.02-8.70Q128.45-5.70 127.87-2.62L127.87-2.62ZM134.59-37.89L132.54-27.71L132.54-27.71Q133.76-27.84 135.52-28.74L135.52-28.74L135.52-28.74Q137.28-29.63 138.88-30.88L138.88-30.88L138.88-30.88Q140.48-32.13 141.63-33.47L141.63-33.47L141.63-33.47Q142.78-34.82 142.78-35.84L142.78-35.84L142.78-35.84Q142.78-36.54 142.34-36.96L142.34-36.96L142.34-36.96Q141.89-37.38 141.09-37.60L141.09-37.60L141.09-37.60Q140.29-37.82 139.33-37.89L139.33-37.89L139.33-37.89Q138.37-37.95 137.34-37.95L137.34-37.95L137.34-37.95Q136.64-37.95 135.90-37.92L135.90-37.92L135.90-37.92Q135.17-37.89 134.59-37.89L134.59-37.89ZM169.22-1.28L169.22-1.28Q167.62-1.02 165.70-0.70L165.70-0.70L165.70-0.70Q163.78-0.38 162.24-0.13L162.24-0.13L162.24-0.13Q162.50-2.24 162.75-4.29L162.75-4.29L162.75-4.29Q162.94-6.08 163.10-7.87L163.10-7.87L163.10-7.87Q163.26-9.66 163.39-10.94L163.39-10.94L157.82-10.94L155.26-1.73L155.26-1.73Q153.86-1.54 151.94-1.31L151.94-1.31L151.94-1.31Q150.02-1.09 148.35-0.90L148.35-0.90L148.35-0.90Q146.30-0.64 144.32-0.38L144.32-0.38L144.32-0.38Q146.88-8.90 149.38-17.15L149.38-17.15L149.38-17.15Q150.40-20.61 151.52-24.38L151.52-24.38L151.52-24.38Q152.64-28.16 153.76-31.90L153.76-31.90L153.76-31.90Q154.88-35.65 155.90-39.10L155.90-39.10L155.90-39.10Q156.93-42.56 157.70-45.44L157.70-45.44L157.70-45.44Q162.05-45.76 166.56-46.21L166.56-46.21L166.56-46.21Q171.07-46.66 175.36-47.42L175.36-47.42L175.36-47.42Q175.17-45.38 174.94-42.34L174.94-42.34L174.94-42.34Q174.72-39.30 174.53-35.71L174.53-35.71L174.53-35.71Q174.34-32.13 174.14-28.22L174.14-28.22L174.14-28.22Q173.95-24.32 173.76-20.54L173.76-20.54L173.76-20.54Q173.44-11.71 173.06-1.79L173.06-1.79L173.06-1.79Q171.14-1.47 169.22-1.28L169.22-1.28ZM163.33-33.41L159.36-17.34L159.36-17.34Q159.62-17.34 160.29-17.38L160.29-17.38L160.29-17.38Q160.96-17.41 161.70-17.44L161.70-17.44L161.70-17.44Q162.43-17.47 163.07-17.50L163.07-17.50L163.07-17.50Q163.71-17.54 163.97-17.60L163.97-17.60L163.97-17.60Q163.97-17.98 164.06-18.91L164.06-18.91L164.06-18.91Q164.16-19.84 164.26-21.02L164.26-21.02L164.26-21.02Q164.35-22.21 164.48-23.62L164.48-23.62L164.48-23.62Q164.61-25.02 164.74-26.37L164.74-26.37L164.74-26.37Q164.99-29.63 165.38-33.41L165.38-33.41L165.76-38.98L164.80-38.91L163.33-33.41ZM201.73-15.81L201.73-15.81Q201.73-12.22 200.35-9.31L200.35-9.31L200.35-9.31Q198.98-6.40 196.64-4.29L196.64-4.29L196.64-4.29Q194.30-2.18 191.14-1.02L191.14-1.02L191.14-1.02Q187.97 0.13 184.32 0.13L184.32 0.13L184.32 0.13Q181.76 0.13 179.20-1.25L179.20-1.25L179.20-1.25Q176.64-2.62 174.27-5.63L174.27-5.63L179.01-14.91L179.01-14.91Q179.46-14.08 180.35-13.22L180.35-13.22L180.35-13.22Q181.25-12.35 182.37-11.71L182.37-11.71L182.37-11.71Q183.49-11.07 184.61-10.66L184.61-10.66L184.61-10.66Q185.73-10.24 186.62-10.24L186.62-10.24L186.62-10.24Q187.39-10.24 188.22-10.50L188.22-10.50L188.22-10.50Q189.06-10.75 189.76-11.26L189.76-11.26L189.76-11.26Q190.46-11.78 190.88-12.45L190.88-12.45L190.88-12.45Q191.30-13.12 191.30-14.02L191.30-14.02L191.30-14.02Q191.30-15.55 190.30-16.86L190.30-16.86L190.30-16.86Q189.31-18.18 187.84-19.36L187.84-19.36L187.84-19.36Q186.37-20.54 184.64-21.76L184.64-21.76L184.64-21.76Q182.91-22.98 181.47-24.32L181.47-24.32L181.47-24.32Q180.03-25.66 179.01-27.33L179.01-27.33L179.01-27.33Q177.98-28.99 177.98-31.04L177.98-31.04L177.98-31.04Q177.98-34.37 179.97-37.25L179.97-37.25L179.97-37.25Q181.95-40.13 184.93-42.21L184.93-42.21L184.93-42.21Q187.90-44.29 191.42-45.50L191.42-45.50L191.42-45.50Q194.94-46.72 198.08-46.72L198.08-46.72L198.08-46.72Q199.81-46.72 201.34-46.30L201.34-46.30L201.34-46.30Q202.88-45.89 204.00-44.96L204.00-44.96L204.00-44.96Q205.12-44.03 205.79-42.62L205.79-42.62L205.79-42.62Q206.46-41.22 206.46-39.10L206.46-39.10L206.46-39.10Q206.46-38.21 206.30-37.31L206.30-37.31L206.30-37.31Q206.14-36.42 206.02-35.39L206.02-35.39L196.74-32.70L196.74-32.70Q196.86-33.22 196.96-33.73L196.96-33.73L196.96-33.73Q197.06-34.24 197.06-34.75L197.06-34.75L197.06-34.75Q197.06-36.67 196.38-37.54L196.38-37.54L196.38-37.54Q195.71-38.40 194.62-38.40L194.62-38.40L194.62-38.40Q194.11-38.40 193.38-38.02L193.38-38.02L193.38-38.02Q192.64-37.63 191.90-37.02L191.90-37.02L191.90-37.02Q191.17-36.42 190.66-35.58L190.66-35.58L190.66-35.58Q190.14-34.75 190.14-33.79L190.14-33.79L190.14-33.79Q190.14-32.26 191.01-31.23L191.01-31.23L191.01-31.23Q191.87-30.21 193.15-29.31L193.15-29.31L193.15-29.31Q194.43-28.42 195.94-27.49L195.94-27.49L195.94-27.49Q197.44-26.56 198.72-25.09L198.72-25.09L198.72-25.09Q200.00-23.62 200.86-21.41L200.86-21.41L200.86-21.41Q201.73-19.20 201.73-15.81L201.73-15.81ZM236.93-1.28L236.93-1.28Q235.33-1.02 233.41-0.70L233.41-0.70L233.41-0.70Q231.49-0.38 229.95-0.13L229.95-0.13L229.95-0.13Q230.21-2.24 230.46-4.29L230.46-4.29L230.46-4.29Q230.66-6.08 230.82-7.87L230.82-7.87L230.82-7.87Q230.98-9.66 231.10-10.94L231.10-10.94L225.54-10.94L222.98-1.73L222.98-1.73Q221.57-1.54 219.65-1.31L219.65-1.31L219.65-1.31Q217.73-1.09 216.06-0.90L216.06-0.90L216.06-0.90Q214.02-0.64 212.03-0.38L212.03-0.38L212.03-0.38Q214.59-8.90 217.09-17.15L217.09-17.15L217.09-17.15Q218.11-20.61 219.23-24.38L219.23-24.38L219.23-24.38Q220.35-28.16 221.47-31.90L221.47-31.90L221.47-31.90Q222.59-35.65 223.62-39.10L223.62-39.10L223.62-39.10Q224.64-42.56 225.41-45.44L225.41-45.44L225.41-45.44Q229.76-45.76 234.27-46.21L234.27-46.21L234.27-46.21Q238.78-46.66 243.07-47.42L243.07-47.42L243.07-47.42Q242.88-45.38 242.66-42.34L242.66-42.34L242.66-42.34Q242.43-39.30 242.24-35.71L242.24-35.71L242.24-35.71Q242.05-32.13 241.86-28.22L241.86-28.22L241.86-28.22Q241.66-24.32 241.47-20.54L241.47-20.54L241.47-20.54Q241.15-11.71 240.77-1.79L240.77-1.79L240.77-1.79Q238.85-1.47 236.93-1.28L236.93-1.28ZM231.04-33.41L227.07-17.34L227.07-17.34Q227.33-17.34 228.00-17.38L228.00-17.38L228.00-17.38Q228.67-17.41 229.41-17.44L229.41-17.44L229.41-17.44Q230.14-17.47 230.78-17.50L230.78-17.50L230.78-17.50Q231.42-17.54 231.68-17.60L231.68-17.60L231.68-17.60Q231.68-17.98 231.78-18.91L231.78-18.91L231.78-18.91Q231.87-19.84 231.97-21.02L231.97-21.02L231.97-21.02Q232.06-22.21 232.19-23.62L232.19-23.62L232.19-23.62Q232.32-25.02 232.45-26.37L232.45-26.37L232.45-26.37Q232.70-29.63 233.09-33.41L233.09-33.41L233.47-38.98L232.51-38.91L231.04-33.41ZM251.46-1.92L241.60 0.13L241.60 0.13Q243.39-8.83 245.06-17.34L245.06-17.34L245.06-17.34Q245.70-20.99 246.40-24.93L246.40-24.93L246.40-24.93Q247.10-28.86 247.71-32.70L247.71-32.70L247.71-32.70Q248.32-36.54 248.86-40.16L248.86-40.16L248.86-40.16Q249.41-43.78 249.73-46.72L249.73-46.72L249.73-46.72Q251.20-46.66 252.45-46.56L252.45-46.56L252.45-46.56Q253.70-46.46 254.91-46.40L254.91-46.40L254.91-46.40Q256.13-46.34 257.38-46.30L257.38-46.30L257.38-46.30Q258.62-46.27 260.10-46.27L260.10-46.27L260.10-46.27Q259.01-41.73 257.95-37.18L257.95-37.18L257.95-37.18Q256.90-32.64 256.00-28.03L256.00-28.03L262.34-28.74L262.34-28.74Q263.23-33.28 263.94-37.54L263.94-37.54L263.94-37.54Q264.64-41.79 265.79-46.34L265.79-46.34L265.79-46.34Q267.26-46.59 269.06-46.75L269.06-46.75L269.06-46.75Q270.85-46.91 272.38-47.04L272.38-47.04L272.38-47.04Q273.92-47.17 274.98-47.26L274.98-47.26L274.98-47.26Q276.03-47.36 276.03-47.36L276.03-47.36L276.03-47.36Q275.14-44.48 274.34-41.06L274.34-41.06L274.34-41.06Q273.54-37.63 272.77-33.95L272.77-33.95L272.77-33.95Q272.00-30.27 271.30-26.50L271.30-26.50L271.30-26.50Q270.59-22.72 270.02-19.33L270.02-19.33L270.02-19.33Q268.61-11.20 267.39-2.69L267.39-2.69L257.41-1.54L257.41-1.54Q258.24-5.38 258.88-9.02L258.88-9.02L258.88-9.02Q259.52-12.10 260.19-15.42L260.19-15.42L260.19-15.42Q260.86-18.75 261.25-21.12L261.25-21.12L255.04-20.54L255.04-20.54Q254.59-18.11 253.98-14.91L253.98-14.91L253.98-14.91Q253.38-11.71 252.86-8.83L252.86-8.83L252.86-8.83Q252.16-5.38 251.46-1.92L251.46-1.92ZM305.15-34.62L305.15-34.62Q305.15-29.38 304.03-24.74L304.03-24.74L304.03-24.74Q302.91-20.10 301.06-16.22L301.06-16.22L301.06-16.22Q299.20-12.35 296.74-9.31L296.74-9.31L296.74-9.31Q294.27-6.27 291.58-4.13L291.58-4.13L291.58-4.13Q288.90-1.98 286.14-0.86L286.14-0.86L286.14-0.86Q283.39 0.26 280.90 0.26L280.90 0.26L280.90 0.26Q278.78 0.26 277.06-0.54L277.06-0.54L277.06-0.54Q275.33-1.34 274.05-2.91L274.05-2.91L274.05-2.91Q272.77-4.48 272.03-6.94L272.03-6.94L272.03-6.94Q271.30-9.41 271.30-12.86L271.30-12.86L271.30-12.86Q271.30-16.45 272.19-20.42L272.19-20.42L272.19-20.42Q273.09-24.38 274.62-28.29L274.62-28.29L274.62-28.29Q276.16-32.19 278.40-35.71L278.40-35.71L278.40-35.71Q280.64-39.23 283.33-41.95L283.33-41.95L283.33-41.95Q286.02-44.67 289.09-46.27L289.09-46.27L289.09-46.27Q292.16-47.87 295.49-47.87L295.49-47.87L295.49-47.87Q298.37-47.87 300.26-46.69L300.26-46.69L300.26-46.69Q302.14-45.50 303.20-43.62L303.20-43.62L303.20-43.62Q304.26-41.73 304.70-39.36L304.70-39.36L304.70-39.36Q305.15-36.99 305.15-34.62L305.15-34.62ZM280.83-14.53L280.83-14.53Q280.83-13.82 281.09-13.06L281.09-13.06L281.09-13.06Q281.34-12.29 281.79-11.71L281.79-11.71L281.79-11.71Q282.24-11.14 282.91-10.72L282.91-10.72L282.91-10.72Q283.58-10.30 284.35-10.30L284.35-10.30L284.35-10.30Q287.23-10.30 289.47-12.29L289.47-12.29L289.47-12.29Q291.71-14.27 293.18-17.15L293.18-17.15L293.18-17.15Q294.66-20.03 295.46-23.30L295.46-23.30L295.46-23.30Q296.26-26.56 296.26-29.25L296.26-29.25L296.26-29.25Q296.26-30.02 296.16-30.91L296.16-30.91L296.16-30.91Q296.06-31.81 295.78-32.58L295.78-32.58L295.78-32.58Q295.49-33.34 294.88-33.89L294.88-33.89L294.88-33.89Q294.27-34.43 293.25-34.43L293.25-34.43L293.25-34.43Q291.20-34.43 289.47-33.41L289.47-33.41L289.47-33.41Q287.74-32.38 286.37-30.69L286.37-30.69L286.37-30.69Q284.99-28.99 283.97-26.85L283.97-26.85L283.97-26.85Q282.94-24.70 282.21-22.50L282.21-22.50L282.21-22.50Q281.47-20.29 281.15-18.18L281.15-18.18L281.15-18.18Q280.83-16.06 280.83-14.53L280.83-14.53ZM311.49-2.62L301.12 0.06L301.12 0.06Q302.85-8.45 304.45-16.58L304.45-16.58L304.45-16.58Q305.02-20.03 305.73-23.78L305.73-23.78L305.73-23.78Q306.43-27.52 307.04-31.20L307.04-31.20L307.04-31.20Q307.65-34.88 308.19-38.30L308.19-38.30L308.19-38.30Q308.74-41.73 309.06-44.54L309.06-44.54L309.06-44.54Q312.70-45.70 316.93-46.24L316.93-46.24L316.93-46.24Q321.15-46.78 325.31-46.78L325.31-46.78L325.31-46.78Q327.81-46.78 329.44-46.21L329.44-46.21L329.44-46.21Q331.07-45.63 332-44.58L332-44.58L332-44.58Q332.93-43.52 333.31-42.11L333.31-42.11L333.31-42.11Q333.70-40.70 333.70-38.98L333.70-38.98L333.70-38.98Q333.70-36.42 332.80-33.95L332.80-33.95L332.80-33.95Q331.90-31.49 330.40-29.28L330.40-29.28L330.40-29.28Q328.90-27.07 326.94-25.25L326.94-25.25L326.94-25.25Q324.99-23.42 322.75-22.27L322.75-22.27L322.75-22.27Q323.90-19.71 325.22-16.67L325.22-16.67L325.22-16.67Q326.53-13.63 327.68-10.88L327.68-10.88L327.68-10.88Q328.96-7.68 330.30-4.48L330.30-4.48L320.38-1.02L320.38-1.02Q319.10-5.12 318.08-8.70L318.08-8.70L318.08-8.70Q317.63-10.18 317.18-11.74L317.18-11.74L317.18-11.74Q316.74-13.31 316.35-14.72L316.35-14.72L316.35-14.72Q315.97-16.13 315.71-17.25L315.71-17.25L315.71-17.25Q315.46-18.37 315.39-19.07L315.39-19.07L314.56-18.82L314.56-18.82Q314.18-16.77 313.63-14.02L313.63-14.02L313.63-14.02Q313.09-11.26 312.64-8.70L312.64-8.70L312.64-8.70Q312.06-5.70 311.49-2.62L311.49-2.62ZM318.21-37.89L316.16-27.71L316.16-27.71Q317.38-27.84 319.14-28.74L319.14-28.74L319.14-28.74Q320.90-29.63 322.50-30.88L322.50-30.88L322.50-30.88Q324.10-32.13 325.25-33.47L325.25-33.47L325.25-33.47Q326.40-34.82 326.40-35.84L326.40-35.84L326.40-35.84Q326.40-36.54 325.95-36.96L325.95-36.96L325.95-36.96Q325.50-37.38 324.70-37.60L324.70-37.60L324.70-37.60Q323.90-37.82 322.94-37.89L322.94-37.89L322.94-37.89Q321.98-37.95 320.96-37.95L320.96-37.95L320.96-37.95Q320.26-37.95 319.52-37.92L319.52-37.92L319.52-37.92Q318.78-37.89 318.21-37.89L318.21-37.89ZM339.90-2.62L329.54 0.06L329.54 0.06Q331.26-8.45 332.86-16.58L332.86-16.58L332.86-16.58Q333.44-20.03 334.14-23.78L334.14-23.78L334.14-23.78Q334.85-27.52 335.46-31.20L335.46-31.20L335.46-31.20Q336.06-34.88 336.61-38.30L336.61-38.30L336.61-38.30Q337.15-41.73 337.47-44.54L337.47-44.54L337.47-44.54Q341.12-45.70 345.34-46.24L345.34-46.24L345.34-46.24Q349.57-46.78 353.73-46.78L353.73-46.78L353.73-46.78Q356.22-46.78 357.86-46.21L357.86-46.21L357.86-46.21Q359.49-45.63 360.42-44.58L360.42-44.58L360.42-44.58Q361.34-43.52 361.73-42.11L361.73-42.11L361.73-42.11Q362.11-40.70 362.11-38.98L362.11-38.98L362.11-38.98Q362.11-36.42 361.22-33.95L361.22-33.95L361.22-33.95Q360.32-31.49 358.82-29.28L358.82-29.28L358.82-29.28Q357.31-27.07 355.36-25.25L355.36-25.25L355.36-25.25Q353.41-23.42 351.17-22.27L351.17-22.27L351.17-22.27Q352.32-19.71 353.63-16.67L353.63-16.67L353.63-16.67Q354.94-13.63 356.10-10.88L356.10-10.88L356.10-10.88Q357.38-7.68 358.72-4.48L358.72-4.48L348.80-1.02L348.80-1.02Q347.52-5.12 346.50-8.70L346.50-8.70L346.50-8.70Q346.05-10.18 345.60-11.74L345.60-11.74L345.60-11.74Q345.15-13.31 344.77-14.72L344.77-14.72L344.77-14.72Q344.38-16.13 344.13-17.25L344.13-17.25L344.13-17.25Q343.87-18.37 343.81-19.07L343.81-19.07L342.98-18.82L342.98-18.82Q342.59-16.77 342.05-14.02L342.05-14.02L342.05-14.02Q341.50-11.26 341.06-8.70L341.06-8.70L341.06-8.70Q340.48-5.70 339.90-2.62L339.90-2.62ZM346.62-37.89L344.58-27.71L344.58-27.71Q345.79-27.84 347.55-28.74L347.55-28.74L347.55-28.74Q349.31-29.63 350.91-30.88L350.91-30.88L350.91-30.88Q352.51-32.13 353.66-33.47L353.66-33.47L353.66-33.47Q354.82-34.82 354.82-35.84L354.82-35.84L354.82-35.84Q354.82-36.54 354.37-36.96L354.37-36.96L354.37-36.96Q353.92-37.38 353.12-37.60L353.12-37.60L353.12-37.60Q352.32-37.82 351.36-37.89L351.36-37.89L351.36-37.89Q350.40-37.95 349.38-37.95L349.38-37.95L349.38-37.95Q348.67-37.95 347.94-37.92L347.94-37.92L347.94-37.92Q347.20-37.89 346.62-37.89L346.62-37.89ZM381.25-1.28L381.25-1.28Q379.65-1.02 377.73-0.70L377.73-0.70L377.73-0.70Q375.81-0.38 374.27-0.13L374.27-0.13L374.27-0.13Q374.53-2.24 374.78-4.29L374.78-4.29L374.78-4.29Q374.98-6.08 375.14-7.87L375.14-7.87L375.14-7.87Q375.30-9.66 375.42-10.94L375.42-10.94L369.86-10.94L367.30-1.73L367.30-1.73Q365.89-1.54 363.97-1.31L363.97-1.31L363.97-1.31Q362.05-1.09 360.38-0.90L360.38-0.90L360.38-0.90Q358.34-0.64 356.35-0.38L356.35-0.38L356.35-0.38Q358.91-8.90 361.41-17.15L361.41-17.15L361.41-17.15Q362.43-20.61 363.55-24.38L363.55-24.38L363.55-24.38Q364.67-28.16 365.79-31.90L365.79-31.90L365.79-31.90Q366.91-35.65 367.94-39.10L367.94-39.10L367.94-39.10Q368.96-42.56 369.73-45.44L369.73-45.44L369.73-45.44Q374.08-45.76 378.59-46.21L378.59-46.21L378.59-46.21Q383.10-46.66 387.39-47.42L387.39-47.42L387.39-47.42Q387.20-45.38 386.98-42.34L386.98-42.34L386.98-42.34Q386.75-39.30 386.56-35.71L386.56-35.71L386.56-35.71Q386.37-32.13 386.18-28.22L386.18-28.22L386.18-28.22Q385.98-24.32 385.79-20.54L385.79-20.54L385.79-20.54Q385.47-11.71 385.09-1.79L385.09-1.79L385.09-1.79Q383.17-1.47 381.25-1.28L381.25-1.28ZM375.36-33.41L371.39-17.34L371.39-17.34Q371.65-17.34 372.32-17.38L372.32-17.38L372.32-17.38Q372.99-17.41 373.73-17.44L373.73-17.44L373.73-17.44Q374.46-17.47 375.10-17.50L375.10-17.50L375.10-17.50Q375.74-17.54 376-17.60L376-17.60L376-17.60Q376-17.98 376.10-18.91L376.10-18.91L376.10-18.91Q376.19-19.84 376.29-21.02L376.29-21.02L376.29-21.02Q376.38-22.21 376.51-23.62L376.51-23.62L376.51-23.62Q376.64-25.02 376.77-26.37L376.77-26.37L376.77-26.37Q377.02-29.63 377.41-33.41L377.41-33.41L377.79-38.98L376.83-38.91L375.36-33.41ZM417.98-32.70L417.98-32.70Q417.98-29.38 417.02-25.63L417.02-25.63L417.02-25.63Q416.06-21.89 414.34-18.21L414.34-18.21L414.34-18.21Q412.61-14.53 410.08-11.17L410.08-11.17L410.08-11.17Q407.55-7.81 404.35-5.28L404.35-5.28L404.35-5.28Q401.15-2.75 397.34-1.22L397.34-1.22L397.34-1.22Q393.54 0.32 389.25 0.32L389.25 0.32L389.25 0.32Q388.35 0.32 387.46 0.22L387.46 0.22L387.46 0.22Q386.56 0.13 385.66 0L385.66 0L385.66 0Q387.39-8.83 389.06-17.22L389.06-17.22L389.06-17.22Q389.70-20.74 390.40-24.54L390.40-24.54L390.40-24.54Q391.10-28.35 391.74-32.06L391.74-32.06L391.74-32.06Q392.38-35.78 392.99-39.17L392.99-39.17L392.99-39.17Q393.60-42.56 393.98-45.31L393.98-45.31L393.98-45.31Q396.74-45.82 399.55-46.27L399.55-46.27L399.55-46.27Q402.37-46.72 405.31-46.72L405.31-46.72L405.31-46.72Q408.77-46.72 411.17-45.63L411.17-45.63L411.17-45.63Q413.57-44.54 415.07-42.62L415.07-42.62L415.07-42.62Q416.58-40.70 417.28-38.14L417.28-38.14L417.28-38.14Q417.98-35.58 417.98-32.70L417.98-32.70ZM402.88-37.70L402.88-37.70Q402.18-33.92 401.41-30.46L401.41-30.46L401.41-30.46Q400.64-27.01 399.87-23.49L399.87-23.49L399.87-23.49Q399.10-19.97 398.34-16.13L398.34-16.13L398.34-16.13Q397.57-12.29 396.86-7.74L396.86-7.74L396.86-7.74Q398.40-8.77 399.84-10.53L399.84-10.53L399.84-10.53Q401.28-12.29 402.56-14.59L402.56-14.59L402.56-14.59Q403.84-16.90 404.90-19.46L404.90-19.46L404.90-19.46Q405.95-22.02 406.72-24.45L406.72-24.45L406.72-24.45Q407.49-26.88 407.90-28.99L407.90-28.99L407.90-28.99Q408.32-31.10 408.32-32.64L408.32-32.64L408.32-32.64Q408.32-35.01 407.01-36.35L407.01-36.35L407.01-36.35Q405.70-37.70 402.88-37.70L402.88-37.70ZM449.47-34.62L449.47-34.62Q449.47-29.38 448.35-24.74L448.35-24.74L448.35-24.74Q447.23-20.10 445.38-16.22L445.38-16.22L445.38-16.22Q443.52-12.35 441.06-9.31L441.06-9.31L441.06-9.31Q438.59-6.27 435.90-4.13L435.90-4.13L435.90-4.13Q433.22-1.98 430.46-0.86L430.46-0.86L430.46-0.86Q427.71 0.26 425.22 0.26L425.22 0.26L425.22 0.26Q423.10 0.26 421.38-0.54L421.38-0.54L421.38-0.54Q419.65-1.34 418.37-2.91L418.37-2.91L418.37-2.91Q417.09-4.48 416.35-6.94L416.35-6.94L416.35-6.94Q415.62-9.41 415.62-12.86L415.62-12.86L415.62-12.86Q415.62-16.45 416.51-20.42L416.51-20.42L416.51-20.42Q417.41-24.38 418.94-28.29L418.94-28.29L418.94-28.29Q420.48-32.19 422.72-35.71L422.72-35.71L422.72-35.71Q424.96-39.23 427.65-41.95L427.65-41.95L427.65-41.95Q430.34-44.67 433.41-46.27L433.41-46.27L433.41-46.27Q436.48-47.87 439.81-47.87L439.81-47.87L439.81-47.87Q442.69-47.87 444.58-46.69L444.58-46.69L444.58-46.69Q446.46-45.50 447.52-43.62L447.52-43.62L447.52-43.62Q448.58-41.73 449.02-39.36L449.02-39.36L449.02-39.36Q449.47-36.99 449.47-34.62L449.47-34.62ZM425.15-14.53L425.15-14.53Q425.15-13.82 425.41-13.06L425.41-13.06L425.41-13.06Q425.66-12.29 426.11-11.71L426.11-11.71L426.11-11.71Q426.56-11.14 427.23-10.72L427.23-10.72L427.23-10.72Q427.90-10.30 428.67-10.30L428.67-10.30L428.67-10.30Q431.55-10.30 433.79-12.29L433.79-12.29L433.79-12.29Q436.03-14.27 437.50-17.15L437.50-17.15L437.50-17.15Q438.98-20.03 439.78-23.30L439.78-23.30L439.78-23.30Q440.58-26.56 440.58-29.25L440.58-29.25L440.58-29.25Q440.58-30.02 440.48-30.91L440.48-30.91L440.48-30.91Q440.38-31.81 440.10-32.58L440.10-32.58L440.10-32.58Q439.81-33.34 439.20-33.89L439.20-33.89L439.20-33.89Q438.59-34.43 437.57-34.43L437.57-34.43L437.57-34.43Q435.52-34.43 433.79-33.41L433.79-33.41L433.79-33.41Q432.06-32.38 430.69-30.69L430.69-30.69L430.69-30.69Q429.31-28.99 428.29-26.85L428.29-26.85L428.29-26.85Q427.26-24.70 426.53-22.50L426.53-22.50L426.53-22.50Q425.79-20.29 425.47-18.18L425.47-18.18L425.47-18.18Q425.15-16.06 425.15-14.53L425.15-14.53Z" fill="#ccc"></path></g></g><style>text {
  font-size: 64px;
  font-family: Arial Black;
  dominant-baseline: central;
  text-anchor: middle;
}</style></svg>